<svg width="500" height="288" viewBox="0 0 500 288" fill="none" xmlns="http://www.w3.org/2000/svg">
<g clip-path="url(#clip0)">
<path d="M108.336 255.014C122.697 255.014 134.339 243.372 134.339 229.011C134.339 214.65 122.697 203.008 108.336 203.008C93.9752 203.008 82.3334 214.65 82.3334 229.011C82.3334 243.372 93.9752 255.014 108.336 255.014Z" fill="#F2F2F2"/>
<path d="M112.564 251.208C126.925 251.208 138.567 239.566 138.567 225.205C138.567 210.844 126.925 199.203 112.564 199.203C98.2033 199.203 86.5614 210.844 86.5614 225.205C86.5614 239.566 98.2033 251.208 112.564 251.208Z" fill="#F5F0FF"/>
<path d="M455.231 196.434H133.506V197.312H455.231V196.434Z" fill="#3F3D56"/>
<path d="M300.128 8.18674H185.935V5.83313H134.156V8.18674H19.4923C18.478 8.18674 17.4735 8.38653 16.5364 8.77471C15.5992 9.16289 14.7477 9.73185 14.0305 10.4491C13.3132 11.1664 12.7442 12.0179 12.356 12.955C11.9679 13.8922 11.7681 14.8966 11.7681 15.911V172.276C11.7681 174.324 12.5819 176.289 14.0304 177.738C15.479 179.186 17.4437 180 19.4923 180H300.128C302.176 180 304.141 179.186 305.589 177.738C307.038 176.289 307.852 174.324 307.852 172.276V15.911C307.852 14.8966 307.652 13.8922 307.264 12.955C306.876 12.0179 306.307 11.1664 305.589 10.4491C304.872 9.73185 304.021 9.16289 303.083 8.77471C302.146 8.38653 301.142 8.18674 300.128 8.18674Z" fill="#3F3D56"/>
<path d="M297.496 21.8376H22.1239V177.176H297.496V21.8376Z" fill="#F5F0FF"/>
<path d="M159.574 17.6011C161.134 17.6011 162.399 16.3366 162.399 14.7768C162.399 13.217 161.134 11.9525 159.574 11.9525C158.015 11.9525 156.75 13.217 156.75 14.7768C156.75 16.3366 158.015 17.6011 159.574 17.6011Z" fill="#F5F0FF"/>
<path opacity="0.1" d="M218.744 177.176H22.124V21.8378L218.744 177.176Z" fill="black"/>
<path d="M65.2113 165.552C79.8301 165.552 91.6809 153.701 91.6809 139.082C91.6809 124.463 79.8301 112.612 65.2113 112.612C50.5925 112.612 38.7417 124.463 38.7417 139.082C38.7417 153.701 50.5925 165.552 65.2113 165.552Z" fill="#F2F2F2"/>
<path d="M249.549 105.613H223.826V110.988H249.549V105.613Z" fill="#3F3D56"/>
<path d="M280.647 63.7652H192.729V66.0688H280.647V63.7652Z" fill="#3F3D56"/>
<path d="M280.647 71.0597H192.729V73.3633H280.647V71.0597Z" fill="#3F3D56"/>
<path d="M280.647 78.3542H192.729V80.6578H280.647V78.3542Z" fill="#3F3D56"/>
<path d="M280.647 85.6487H192.729V87.9523H280.647V85.6487Z" fill="#3F3D56"/>
<path d="M280.647 92.9433H192.729V95.2468H280.647V92.9433Z" fill="#3F3D56"/>
<path d="M280.647 24.9891H269.897V35.7389H280.647V24.9891Z" fill="#F2F2F2"/>
<path d="M285.638 40.7299H272.584V27.6765H285.638V40.7299ZM273.152 40.1624H285.07V28.2441H273.152V40.1624Z" fill="#3F3D56"/>
<path d="M315.584 174.351H288.709V172.415C288.709 172.365 288.699 172.315 288.68 172.268C288.661 172.222 288.632 172.179 288.597 172.144C288.561 172.108 288.519 172.08 288.472 172.06C288.425 172.041 288.376 172.031 288.325 172.031H279.111C279.061 172.031 279.011 172.041 278.964 172.06C278.917 172.08 278.875 172.108 278.84 172.144C278.804 172.179 278.776 172.222 278.756 172.268C278.737 172.315 278.727 172.365 278.727 172.415V174.351H272.968V172.415C272.968 172.365 272.958 172.315 272.939 172.268C272.92 172.222 272.891 172.179 272.856 172.144C272.82 172.108 272.778 172.08 272.731 172.06C272.685 172.041 272.635 172.031 272.584 172.031H263.37C263.32 172.031 263.27 172.041 263.223 172.06C263.177 172.08 263.134 172.108 263.099 172.144C263.063 172.179 263.035 172.222 263.015 172.268C262.996 172.315 262.986 172.365 262.986 172.415V174.351H257.227V172.415C257.227 172.365 257.218 172.315 257.198 172.268C257.179 172.222 257.151 172.179 257.115 172.144C257.079 172.108 257.037 172.08 256.99 172.06C256.944 172.041 256.894 172.031 256.844 172.031H247.629C247.579 172.031 247.529 172.041 247.483 172.06C247.436 172.08 247.394 172.108 247.358 172.144C247.322 172.179 247.294 172.222 247.275 172.268C247.255 172.315 247.246 172.365 247.246 172.415V174.351H241.487V172.415C241.487 172.365 241.477 172.315 241.457 172.268C241.438 172.222 241.41 172.179 241.374 172.144C241.339 172.108 241.296 172.08 241.25 172.06C241.203 172.041 241.153 172.031 241.103 172.031H231.889C231.838 172.031 231.788 172.041 231.742 172.06C231.695 172.08 231.653 172.108 231.617 172.144C231.581 172.179 231.553 172.222 231.534 172.268C231.515 172.315 231.505 172.365 231.505 172.415V174.351H225.746V172.415C225.746 172.365 225.736 172.315 225.717 172.268C225.697 172.222 225.669 172.179 225.633 172.144C225.598 172.108 225.555 172.08 225.509 172.06C225.462 172.041 225.412 172.031 225.362 172.031H216.148C216.097 172.031 216.048 172.041 216.001 172.06C215.954 172.08 215.912 172.108 215.876 172.144C215.841 172.179 215.812 172.222 215.793 172.268C215.774 172.315 215.764 172.365 215.764 172.415V174.351H210.005V172.415C210.005 172.365 209.995 172.315 209.976 172.268C209.957 172.222 209.928 172.179 209.893 172.144C209.857 172.108 209.815 172.08 209.768 172.06C209.722 172.041 209.672 172.031 209.621 172.031H200.407C200.357 172.031 200.307 172.041 200.26 172.06C200.214 172.08 200.171 172.108 200.136 172.144C200.1 172.179 200.072 172.222 200.052 172.268C200.033 172.315 200.023 172.365 200.023 172.415V174.351H194.264V172.415C194.264 172.365 194.254 172.315 194.235 172.268C194.216 172.222 194.188 172.179 194.152 172.144C194.116 172.108 194.074 172.08 194.027 172.06C193.981 172.041 193.931 172.031 193.88 172.031H121.703C121.653 172.031 121.603 172.041 121.556 172.06C121.51 172.08 121.467 172.108 121.432 172.144C121.396 172.179 121.368 172.222 121.348 172.268C121.329 172.315 121.319 172.365 121.319 172.415V174.351H115.56V172.415C115.56 172.365 115.55 172.315 115.531 172.268C115.512 172.222 115.484 172.179 115.448 172.144C115.412 172.108 115.37 172.08 115.323 172.06C115.277 172.041 115.227 172.031 115.176 172.031H105.962C105.912 172.031 105.862 172.041 105.815 172.06C105.769 172.08 105.727 172.108 105.691 172.144C105.655 172.179 105.627 172.222 105.608 172.268C105.588 172.315 105.578 172.365 105.578 172.415V174.351H99.8196V172.415C99.8196 172.365 99.8097 172.315 99.7904 172.268C99.7711 172.222 99.7428 172.179 99.7072 172.144C99.6715 172.108 99.6292 172.08 99.5826 172.06C99.536 172.041 99.4861 172.031 99.4357 172.031H90.2216C90.1712 172.031 90.1212 172.041 90.0746 172.06C90.0281 172.08 89.9857 172.108 89.9501 172.144C89.9144 172.179 89.8862 172.222 89.8669 172.268C89.8476 172.315 89.8376 172.365 89.8376 172.415V174.351H84.0788V172.415C84.0788 172.365 84.0689 172.315 84.0496 172.268C84.0303 172.222 84.002 172.179 83.9664 172.144C83.9307 172.108 83.8884 172.08 83.8418 172.06C83.7952 172.041 83.7453 172.031 83.6949 172.031H74.4808C74.4304 172.031 74.3804 172.041 74.3339 172.06C74.2873 172.08 74.2449 172.108 74.2093 172.144C74.1737 172.179 74.1454 172.222 74.1261 172.268C74.1068 172.315 74.0969 172.365 74.0969 172.415V174.351H68.3381V172.415C68.3381 172.365 68.3281 172.315 68.3088 172.268C68.2895 172.222 68.2613 172.179 68.2256 172.144C68.19 172.108 68.1476 172.08 68.1011 172.06C68.0545 172.041 68.0046 172.031 67.9541 172.031H58.74C58.6896 172.031 58.6397 172.041 58.5931 172.06C58.5465 172.08 58.5042 172.108 58.4685 172.144C58.4329 172.179 58.4046 172.222 58.3853 172.268C58.366 172.315 58.3561 172.365 58.3561 172.415V174.351H52.5973V172.415C52.5973 172.365 52.5873 172.315 52.568 172.268C52.5487 172.222 52.5205 172.179 52.4848 172.144C52.4492 172.108 52.4068 172.08 52.3603 172.06C52.3137 172.041 52.2638 172.031 52.2133 172.031H42.9992C42.9488 172.031 42.8989 172.041 42.8523 172.06C42.8057 172.08 42.7634 172.108 42.7277 172.144C42.6921 172.179 42.6638 172.222 42.6445 172.268C42.6252 172.315 42.6153 172.365 42.6153 172.415V174.351H36.8565V172.415C36.8565 172.365 36.8465 172.315 36.8273 172.268C36.808 172.222 36.7797 172.179 36.744 172.144C36.7084 172.108 36.6661 172.08 36.6195 172.06C36.5729 172.041 36.523 172.031 36.4725 172.031H27.2584C27.208 172.031 27.1581 172.041 27.1115 172.06C27.0649 172.08 27.0226 172.108 26.987 172.144C26.9513 172.179 26.923 172.222 26.9037 172.268C26.8844 172.315 26.8745 172.365 26.8745 172.415V174.351H9.21412C6.77038 174.351 4.42674 175.322 2.69876 177.05C0.970774 178.778 2.32815e-06 181.122 0 183.565V187.732C6.98445e-06 190.176 0.970781 192.519 2.69876 194.247C4.42674 195.975 6.77039 196.946 9.21412 196.946H315.584C318.027 196.946 320.371 195.975 322.099 194.247C323.827 192.519 324.798 190.176 324.798 187.732V183.565C324.798 181.122 323.827 178.778 322.099 177.05C320.371 175.322 318.027 174.351 315.584 174.351Z" fill="#3F3D56"/>
<path d="M71.6185 155.615C65.021 155.615 58.5716 153.658 53.086 149.993C47.6004 146.327 43.3248 141.118 40.8001 135.022C38.2753 128.927 37.6147 122.22 38.9018 115.749C40.1889 109.279 43.3659 103.335 48.0311 98.6696C52.6962 94.0045 58.64 90.8275 65.1107 89.5404C71.5815 88.2532 78.2886 88.9138 84.3839 91.4386C90.4792 93.9633 95.6889 98.2389 99.3543 103.725C103.02 109.21 104.976 115.659 104.976 122.257C104.966 131.101 101.448 139.58 95.1948 145.833C88.9412 152.087 80.4624 155.605 71.6185 155.615ZM71.6185 89.7772C65.1946 89.7772 58.915 91.6821 53.5737 95.2511C48.2324 98.82 44.0694 103.893 41.6111 109.828C39.1528 115.762 38.5096 122.293 39.7628 128.593C41.016 134.894 44.1094 140.681 48.6518 145.224C53.1942 149.766 58.9815 152.859 65.282 154.113C71.5824 155.366 78.113 154.723 84.0479 152.264C89.9828 149.806 95.0555 145.643 98.6244 140.302C102.193 134.961 104.098 128.681 104.098 122.257C104.089 113.646 100.663 105.39 94.5744 99.3011C88.4853 93.2121 80.2297 89.787 71.6185 89.7772Z" fill="#3F3D56"/>
<path d="M369.203 14.2837H257.28V15.1616H369.203V14.2837Z" fill="#3F3D56"/>
<path d="M500 246.031H178.275V246.909H500V246.031Z" fill="#3F3D56"/>
<path d="M196.49 286.411H84.5667V287.289H196.49V286.411Z" fill="#3F3D56"/>
<path d="M219.019 241.404H206.729V253.693H219.019V241.404Z" fill="#F5F0FF"/>
<path d="M226.481 246.671H211.557V231.747H226.481V246.671ZM212.206 246.022H225.832V232.396H212.206V246.022Z" fill="#3F3D56"/>
<path d="M361.667 9.65614H349.377V21.9458H361.667V9.65614Z" fill="#F5F0FF"/>
<path d="M369.128 14.9231H354.205V0H369.128V14.9231ZM354.854 14.2743H368.479V0.648833H354.854V14.2743Z" fill="#3F3D56"/>
<path d="M485.441 241.404H473.151V253.693H485.441V241.404Z" fill="#F5F0FF"/>
<path d="M492.902 246.671H477.979V231.747H492.902V246.671ZM478.628 246.022H492.254V232.396H478.628V246.022Z" fill="#3F3D56"/>
<path d="M464.009 101.81H462.965V73.2097C462.965 71.0359 462.537 68.8833 461.705 66.875C460.873 64.8667 459.654 63.0419 458.117 61.5048C456.58 59.9677 454.755 58.7484 452.747 57.9165C450.738 57.0846 448.586 56.6565 446.412 56.6565H385.818C383.644 56.6565 381.492 57.0846 379.483 57.9165C377.475 58.7484 375.65 59.9677 374.113 61.5048C372.576 63.0419 371.357 64.8667 370.525 66.875C369.693 68.8833 369.265 71.0359 369.265 73.2097V230.114C369.265 232.288 369.693 234.44 370.525 236.448C371.357 238.457 372.576 240.282 374.113 241.819C375.65 243.356 377.475 244.575 379.483 245.407C381.492 246.239 383.644 246.667 385.818 246.667H446.412C448.586 246.667 450.738 246.239 452.747 245.407C454.755 244.575 456.58 243.356 458.117 241.819C459.654 240.282 460.873 238.457 461.705 236.448C462.537 234.44 462.965 232.288 462.965 230.114V122.168H464.009V101.81Z" fill="#3F3D56"/>
<path d="M459.44 74.1826V230.858C459.441 234.137 458.139 237.281 455.821 239.6C453.503 241.919 450.359 243.222 447.08 243.222H386.194C382.915 243.222 379.771 241.919 377.453 239.6C375.135 237.281 373.833 234.137 373.834 230.858V74.1826C373.834 70.9046 375.137 67.7611 377.454 65.4432C379.772 63.1254 382.916 61.8231 386.194 61.8227H393.581C393.217 62.7144 393.079 63.6818 393.177 64.6398C393.275 65.5977 393.608 66.5167 394.145 67.3159C394.682 68.115 395.408 68.7698 396.258 69.2225C397.108 69.6752 398.056 69.912 399.019 69.9119H433.733C434.696 69.912 435.644 69.6752 436.494 69.2225C437.344 68.7698 438.069 68.115 438.607 67.3159C439.144 66.5167 439.476 65.5977 439.575 64.6398C439.673 63.6818 439.534 62.7144 439.171 61.8227H447.08C450.358 61.8231 453.502 63.1254 455.82 65.4432C458.137 67.7611 459.44 70.9046 459.44 74.1826Z" fill="#F5F0FF"/>
<path d="M425.706 165.128H407.568V170.503H425.706V165.128Z" fill="#3F3D56"/>
<path d="M447.633 123.28H385.641V125.584H447.633V123.28Z" fill="#3F3D56"/>
<path d="M447.633 130.575H385.641V132.878H447.633V130.575Z" fill="#3F3D56"/>
<path d="M447.633 137.869H385.641V140.173H447.633V137.869Z" fill="#3F3D56"/>
<path d="M447.633 145.164H385.641V147.467H447.633V145.164Z" fill="#3F3D56"/>
<path d="M447.633 152.458H385.641V154.762H447.633V152.458Z" fill="#3F3D56"/>
<path d="M418.802 92.6897H408.053V103.439H418.802V92.6897Z" fill="#F2F2F2"/>
<path d="M412.168 95.3778V108.431H425.221V95.3778H412.168ZM424.655 107.865H412.734V95.944H424.655V107.865Z" fill="#3F3D56"/>
<path opacity="0.1" d="M459.44 214.126V230.858C459.441 234.137 458.139 237.281 455.821 239.6C453.503 241.919 450.359 243.222 447.08 243.222H386.194C382.915 243.222 379.771 241.919 377.453 239.6C375.135 237.281 373.833 234.137 373.834 230.858V146.494L425.13 187.019L426.008 187.712L435.55 195.249L436.441 195.955L459.44 214.126Z" fill="black"/>
<path d="M411.37 238.145C422.004 238.145 430.624 229.524 430.624 218.89C430.624 208.256 422.004 199.636 411.37 199.636C400.736 199.636 392.116 208.256 392.116 218.89C392.116 229.524 400.736 238.145 411.37 238.145Z" fill="#F2F2F2"/>
<path d="M140.528 287.289C132.976 287.289 125.593 285.05 119.313 280.854C113.034 276.658 108.139 270.694 105.249 263.717C102.359 256.739 101.603 249.061 103.076 241.654C104.55 234.247 108.187 227.443 113.527 222.102C118.867 216.762 125.671 213.125 133.079 211.652C140.486 210.178 148.164 210.935 155.141 213.825C162.119 216.715 168.083 221.609 172.278 227.889C176.474 234.168 178.714 241.551 178.714 249.104C178.702 259.228 174.676 268.934 167.517 276.092C160.358 283.251 150.652 287.278 140.528 287.289ZM140.528 211.796C133.149 211.796 125.936 213.984 119.801 218.083C113.666 222.183 108.884 228.009 106.06 234.827C103.237 241.644 102.498 249.145 103.937 256.382C105.377 263.619 108.93 270.267 114.148 275.484C119.365 280.702 126.013 284.255 133.25 285.695C140.487 287.134 147.988 286.395 154.805 283.572C161.622 280.748 167.449 275.966 171.549 269.831C175.648 263.696 177.836 256.482 177.836 249.104C177.825 239.212 173.891 229.73 166.896 222.735C159.902 215.741 150.419 211.807 140.528 211.796Z" fill="#3F3D56"/>
<path d="M417.045 233.742C412.271 233.742 407.603 232.326 403.633 229.673C399.664 227.021 396.57 223.25 394.742 218.839C392.915 214.428 392.437 209.574 393.369 204.892C394.3 200.209 396.599 195.908 399.975 192.531C403.351 189.155 407.653 186.856 412.336 185.925C417.018 184.993 421.872 185.471 426.283 187.298C430.694 189.126 434.465 192.22 437.117 196.19C439.77 200.159 441.186 204.827 441.186 209.601C441.178 216.001 438.633 222.137 434.107 226.663C429.581 231.189 423.445 233.734 417.045 233.742ZM417.045 186.339C412.444 186.339 407.947 187.703 404.121 190.259C400.296 192.815 397.314 196.448 395.553 200.699C393.793 204.95 393.332 209.627 394.23 214.14C395.127 218.652 397.343 222.797 400.596 226.05C403.849 229.304 407.994 231.519 412.507 232.417C417.019 233.314 421.697 232.854 425.947 231.093C430.198 229.332 433.831 226.351 436.387 222.525C438.943 218.7 440.308 214.202 440.308 209.601C440.301 203.434 437.848 197.521 433.487 193.16C429.126 188.799 423.213 186.346 417.045 186.339Z" fill="#3F3D56"/>
</g>
<defs>
<clipPath id="clip0">
<rect width="500" height="287.289" fill="white"/>
</clipPath>
</defs>
</svg>
